<?xml version="1.0" encoding="UTF-8" standalone="no"?><svg xmlns="http://www.w3.org/2000/svg" xmlns:xlink="http://www.w3.org/1999/xlink" contentStyleType="text/css" height="274px" preserveAspectRatio="none" style="width:356px;height:274px;background:#FFFFFF;" version="1.1" viewBox="0 0 356 274" width="356px" zoomAndPan="magnify"><defs/><g><rect height="24" style="stroke:#00000000;stroke-width:1.0;fill:none;" width="96" x="128.5" y="15"/><text fill="#000000" font-family="sans-serif" font-size="14" font-weight="bold" lengthAdjust="spacing" textLength="86" x="133.5" y="32.3184">docker-setup</text><ellipse cx="96.5" cy="55" fill="#222222" rx="10" ry="10" style="stroke:#222222;stroke-width:1.0;"/><path d="M194,89.5 L194,97 L174,101 L194,105 L194,112.5 A0,0 0 0 0 194,112.5 L333,112.5 A0,0 0 0 0 333,112.5 L333,99.5 L323,89.5 L194,89.5 A0,0 0 0 0 194,89.5 " fill="#FEFFDD" style="stroke:#181818;stroke-width:0.5;"/><path d="M323,89.5 L323,99.5 L333,99.5 L323,89.5 " fill="#FEFFDD" style="stroke:#181818;stroke-width:0.5;"/><text fill="#000000" font-family="sans-serif" font-size="13" lengthAdjust="spacing" textLength="118" x="200" y="105.9385">cosignをインストール</text><rect fill="#F1F1F1" height="32" rx="12.5" ry="12.5" style="stroke:#181818;stroke-width:0.5;" width="155" x="19" y="85"/><text fill="#000000" font-family="sans-serif" font-size="12" lengthAdjust="spacing" textLength="135" x="29" y="105.5586">sigstore/cosign-installer</text><path d="M201,141.5 L201,149 L181,153 L201,157 L201,164.5 A0,0 0 0 0 201,164.5 L299,164.5 A0,0 0 0 0 299,164.5 L299,151.5 L289,141.5 L201,141.5 A0,0 0 0 0 201,141.5 " fill="#FEFFDD" style="stroke:#181818;stroke-width:0.5;"/><path d="M289,141.5 L289,151.5 L299,151.5 L289,141.5 " fill="#FEFFDD" style="stroke:#181818;stroke-width:0.5;"/><text fill="#000000" font-family="sans-serif" font-size="13" lengthAdjust="spacing" textLength="77" x="207" y="157.9385">QEMUを設定</text><rect fill="#F1F1F1" height="32" rx="12.5" ry="12.5" style="stroke:#181818;stroke-width:0.5;" width="169" x="12" y="137"/><text fill="#000000" font-family="sans-serif" font-size="12" lengthAdjust="spacing" textLength="149" x="22" y="157.5586">docker/setup-qemu-action</text><path d="M202,193.5 L202,201 L182,205 L202,209 L202,216.5 A0,0 0 0 0 202,216.5 L344,216.5 A0,0 0 0 0 344,216.5 L344,203.5 L334,193.5 L202,193.5 A0,0 0 0 0 202,193.5 " fill="#FEFFDD" style="stroke:#181818;stroke-width:0.5;"/><path d="M334,193.5 L334,203.5 L344,203.5 L334,193.5 " fill="#FEFFDD" style="stroke:#181818;stroke-width:0.5;"/><text fill="#000000" font-family="sans-serif" font-size="13" lengthAdjust="spacing" textLength="121" x="208" y="209.9385">docker buildxを設定</text><rect fill="#F1F1F1" height="32" rx="12.5" ry="12.5" style="stroke:#181818;stroke-width:0.5;" width="171" x="11" y="189"/><text fill="#000000" font-family="sans-serif" font-size="12" lengthAdjust="spacing" textLength="151" x="21" y="209.5586">docker/setup-buildx-action</text><ellipse cx="96.5" cy="252" rx="11" ry="11" style="stroke:#222222;stroke-width:1.0;fill:none;"/><ellipse cx="96.5" cy="252" fill="#222222" rx="6" ry="6" style="stroke:#111111;stroke-width:1.0;"/><line style="stroke:#181818;stroke-width:1.0;" x1="96.5" x2="96.5" y1="65" y2="85"/><polygon fill="#181818" points="92.5,75,96.5,85,100.5,75,96.5,79" style="stroke:#181818;stroke-width:1.0;"/><line style="stroke:#181818;stroke-width:1.0;" x1="96.5" x2="96.5" y1="117" y2="137"/><polygon fill="#181818" points="92.5,127,96.5,137,100.5,127,96.5,131" style="stroke:#181818;stroke-width:1.0;"/><line style="stroke:#181818;stroke-width:1.0;" x1="96.5" x2="96.5" y1="169" y2="189"/><polygon fill="#181818" points="92.5,179,96.5,189,100.5,179,96.5,183" style="stroke:#181818;stroke-width:1.0;"/><line style="stroke:#181818;stroke-width:1.0;" x1="96.5" x2="96.5" y1="221" y2="241"/><polygon fill="#181818" points="92.5,231,96.5,241,100.5,231,96.5,235" style="stroke:#181818;stroke-width:1.0;"/><!--MD5=[02234260b4e46a02f865866507b9a56b]
@startuml 

title docker-setup

start 

:sigstore/cosign-installer;
note right: cosignをインストール

:docker/setup-qemu-action;
note right: QEMUを設定

:docker/setup-buildx-action;
note right: docker buildxを設定

stop

@enduml

PlantUML version 1.2022.5(Sat Apr 30 19:55:52 JST 2022)
(GPL source distribution)
Java Runtime: OpenJDK Runtime Environment
JVM: OpenJDK 64-Bit Server VM
Default Encoding: UTF-8
Language: ja
Country: JP
--></g></svg>