<?xml version="1.0" encoding="UTF-8" standalone="no"?><svg xmlns="http://www.w3.org/2000/svg" xmlns:xlink="http://www.w3.org/1999/xlink" contentStyleType="text/css" height="326px" preserveAspectRatio="none" style="width:313px;height:326px;background:#FFFFFF;" version="1.1" viewBox="0 0 313 326" width="313px" zoomAndPan="magnify"><defs/><g><rect height="24" style="stroke:#00000000;stroke-width:1.0;fill:none;" width="97" x="106.5" y="15"/><text fill="#000000" font-family="sans-serif" font-size="14" font-weight="bold" lengthAdjust="spacing" textLength="87" x="111.5" y="32.3184">python-setup</text><ellipse cx="81" cy="55" fill="#222222" rx="10" ry="10" style="stroke:#222222;stroke-width:1.0;"/><path d="M171,89.5 L171,97 L151,101 L171,105 L171,112.5 A0,0 0 0 0 171,112.5 L272,112.5 A0,0 0 0 0 272,112.5 L272,99.5 L262,89.5 L171,89.5 A0,0 0 0 0 171,89.5 " fill="#FEFFDD" style="stroke:#181818;stroke-width:0.5;"/><path d="M262,89.5 L262,99.5 L272,99.5 L262,89.5 " fill="#FEFFDD" style="stroke:#181818;stroke-width:0.5;"/><text fill="#000000" font-family="sans-serif" font-size="13" lengthAdjust="spacing" textLength="80" x="177" y="105.9385">pythonを設定</text><rect fill="#F1F1F1" height="32" rx="12.5" ry="12.5" style="stroke:#181818;stroke-width:0.5;" width="140" x="11" y="85"/><text fill="#000000" font-family="sans-serif" font-size="12" lengthAdjust="spacing" textLength="120" x="21" y="105.5586">actions/setup-python</text><path d="M163,141.5 L163,149 L143,153 L163,157 L163,164.5 A0,0 0 0 0 163,164.5 L301,164.5 A0,0 0 0 0 301,164.5 L301,151.5 L291,141.5 L163,141.5 A0,0 0 0 0 163,141.5 " fill="#FEFFDD" style="stroke:#181818;stroke-width:0.5;"/><path d="M291,141.5 L291,151.5 L301,151.5 L291,141.5 " fill="#FEFFDD" style="stroke:#181818;stroke-width:0.5;"/><text fill="#000000" font-family="sans-serif" font-size="13" lengthAdjust="spacing" textLength="117" x="169" y="157.9385">poetryをインストール</text><rect fill="#F1F1F1" height="32" rx="12.5" ry="12.5" style="stroke:#181818;stroke-width:0.5;" width="124" x="19" y="137"/><text fill="#000000" font-family="sans-serif" font-size="12" lengthAdjust="spacing" textLength="104" x="29" y="157.5586">snok/install-poetry</text><path d="M152,193.5 L152,201 L132,205 L152,209 L152,216.5 A0,0 0 0 0 152,216.5 L266,216.5 A0,0 0 0 0 266,216.5 L266,203.5 L256,193.5 L152,193.5 A0,0 0 0 0 152,193.5 " fill="#FEFFDD" style="stroke:#181818;stroke-width:0.5;"/><path d="M256,193.5 L256,203.5 L266,203.5 L256,193.5 " fill="#FEFFDD" style="stroke:#181818;stroke-width:0.5;"/><text fill="#000000" font-family="sans-serif" font-size="13" lengthAdjust="spacing" textLength="93" x="158" y="209.9385">.venvをキャッシュ</text><rect fill="#F1F1F1" height="32" rx="12.5" ry="12.5" style="stroke:#181818;stroke-width:0.5;" width="102" x="30" y="189"/><text fill="#000000" font-family="sans-serif" font-size="12" lengthAdjust="spacing" textLength="82" x="40" y="209.5586">actions/cache</text><path d="M146.5,245.5 L146.5,253 L126.5,257 L146.5,261 L146.5,268.5 A0,0 0 0 0 146.5,268.5 L297.5,268.5 A0,0 0 0 0 297.5,268.5 L297.5,255.5 L287.5,245.5 L146.5,245.5 A0,0 0 0 0 146.5,245.5 " fill="#FEFFDD" style="stroke:#181818;stroke-width:0.5;"/><path d="M287.5,245.5 L287.5,255.5 L297.5,255.5 L287.5,245.5 " fill="#FEFFDD" style="stroke:#181818;stroke-width:0.5;"/><text fill="#000000" font-family="sans-serif" font-size="13" lengthAdjust="spacing" textLength="130" x="152.5" y="261.9385">依存関係をインストール</text><rect fill="#F1F1F1" height="32" rx="12.5" ry="12.5" style="stroke:#181818;stroke-width:0.5;" width="91" x="35.5" y="241"/><text fill="#000000" font-family="sans-serif" font-size="12" lengthAdjust="spacing" textLength="71" x="45.5" y="261.5586">poetry install</text><ellipse cx="81" cy="304" rx="11" ry="11" style="stroke:#222222;stroke-width:1.0;fill:none;"/><ellipse cx="81" cy="304" fill="#222222" rx="6" ry="6" style="stroke:#111111;stroke-width:1.0;"/><line style="stroke:#181818;stroke-width:1.0;" x1="81" x2="81" y1="65" y2="85"/><polygon fill="#181818" points="77,75,81,85,85,75,81,79" style="stroke:#181818;stroke-width:1.0;"/><line style="stroke:#181818;stroke-width:1.0;" x1="81" x2="81" y1="117" y2="137"/><polygon fill="#181818" points="77,127,81,137,85,127,81,131" style="stroke:#181818;stroke-width:1.0;"/><line style="stroke:#181818;stroke-width:1.0;" x1="81" x2="81" y1="169" y2="189"/><polygon fill="#181818" points="77,179,81,189,85,179,81,183" style="stroke:#181818;stroke-width:1.0;"/><line style="stroke:#181818;stroke-width:1.0;" x1="81" x2="81" y1="221" y2="241"/><polygon fill="#181818" points="77,231,81,241,85,231,81,235" style="stroke:#181818;stroke-width:1.0;"/><line style="stroke:#181818;stroke-width:1.0;" x1="81" x2="81" y1="273" y2="293"/><polygon fill="#181818" points="77,283,81,293,85,283,81,287" style="stroke:#181818;stroke-width:1.0;"/><!--MD5=[b5edc20fe72b96cdc27043a46d2c108e]
@startuml 

title python-setup

start 

:actions/setup-python;
note right: pythonを設定

:snok/install-poetry;
note right: poetryをインストール

:actions/cache;
note right: .venvをキャッシュ

:poetry install;
note right: 依存関係をインストール

stop

@enduml

PlantUML version 1.2022.5(Sat Apr 30 19:55:52 JST 2022)
(GPL source distribution)
Java Runtime: OpenJDK Runtime Environment
JVM: OpenJDK 64-Bit Server VM
Default Encoding: UTF-8
Language: ja
Country: JP
--></g></svg>