<?xml version="1.0" encoding="UTF-8" standalone="no"?><svg xmlns="http://www.w3.org/2000/svg" xmlns:xlink="http://www.w3.org/1999/xlink" contentStyleType="text/css" height="406px" preserveAspectRatio="none" style="width:369px;height:406px;background:#FFFFFF;" version="1.1" viewBox="0 0 369 406" width="369px" zoomAndPan="magnify"><defs/><g><rect height="24" style="stroke:#00000000;stroke-width:1.0;fill:none;" width="169" x="98.5" y="15"/><text fill="#000000" font-family="sans-serif" font-size="14" font-weight="bold" lengthAdjust="spacing" textLength="159" x="103.5" y="32.3184">auto-pr-review-summary</text><ellipse cx="172" cy="55" fill="#222222" rx="10" ry="10" style="stroke:#222222;stroke-width:1.0;"/><rect fill="#555555" height="6" rx="2.5" ry="2.5" style="stroke:#555555;stroke-width:1.0;" width="322" x="11" y="133"/><rect fill="#F1F1F1" height="32" rx="12.5" ry="12.5" style="stroke:#181818;stroke-width:0.5;" width="127" x="38.5" y="207"/><text fill="#000000" font-family="sans-serif" font-size="12" lengthAdjust="spacing" textLength="107" x="48.5" y="227.5586">review-dependabot</text><polygon fill="#F1F1F1" points="35,159,169,159,181,171,169,183,35,183,23,171,35,159" style="stroke:#181818;stroke-width:0.5;"/><text fill="#000000" font-family="sans-serif" font-size="11" lengthAdjust="spacing" textLength="16" x="106" y="192.6787">yes</text><text fill="#000000" font-family="sans-serif" font-size="11" lengthAdjust="spacing" textLength="111" x="35" y="169.6787">actor is dependabot?</text><text fill="#000000" font-family="sans-serif" font-size="11" lengthAdjust="spacing" textLength="134" x="35" y="180.6787">&amp;&amp; update-type = patch ?</text><text fill="#000000" font-family="sans-serif" font-size="11" lengthAdjust="spacing" textLength="14" x="181" y="169.6787">no</text><polygon fill="#F1F1F1" points="102,259,114,271,102,283,90,271,102,259" style="stroke:#181818;stroke-width:0.5;"/><rect fill="#F1F1F1" height="32" rx="12.5" ry="12.5" style="stroke:#181818;stroke-width:0.5;" width="100" x="221" y="207"/><text fill="#000000" font-family="sans-serif" font-size="12" lengthAdjust="spacing" textLength="80" x="231" y="227.5586">review-license</text><rect fill="#555555" height="6" rx="2.5" ry="2.5" style="stroke:#555555;stroke-width:1.0;" width="322" x="11" y="303"/><polygon fill="#F1F1F1" points="135,85,209,85,221,97,209,109,135,109,123,97,135,85" style="stroke:#181818;stroke-width:0.5;"/><text fill="#000000" font-family="sans-serif" font-size="11" lengthAdjust="spacing" textLength="16" x="176" y="118.6787">yes</text><text fill="#000000" font-family="sans-serif" font-size="11" lengthAdjust="spacing" textLength="74" x="135" y="101.1787">pull_request ?</text><text fill="#000000" font-family="sans-serif" font-size="11" lengthAdjust="spacing" textLength="14" x="221" y="95.6787">no</text><polygon fill="#F1F1F1" points="172,329,184,341,172,353,160,341,172,329" style="stroke:#181818;stroke-width:0.5;"/><ellipse cx="172" cy="384" rx="11" ry="11" style="stroke:#222222;stroke-width:1.0;fill:none;"/><ellipse cx="172" cy="384" fill="#222222" rx="6" ry="6" style="stroke:#111111;stroke-width:1.0;"/><line style="stroke:#181818;stroke-width:1.0;" x1="102" x2="102" y1="183" y2="207"/><polygon fill="#181818" points="98,197,102,207,106,197,102,201" style="stroke:#181818;stroke-width:1.0;"/><line style="stroke:#181818;stroke-width:1.0;" x1="181" x2="193" y1="171" y2="171"/><polygon fill="#181818" points="189,213,193,223,197,213,193,217" style="stroke:#181818;stroke-width:1.0;"/><line style="stroke:#181818;stroke-width:1.0;" x1="193" x2="193" y1="171" y2="271"/><line style="stroke:#181818;stroke-width:1.0;" x1="193" x2="114" y1="271" y2="271"/><polygon fill="#181818" points="124,267,114,271,124,275,120,271" style="stroke:#181818;stroke-width:1.0;"/><line style="stroke:#181818;stroke-width:1.0;" x1="102" x2="102" y1="239" y2="259"/><polygon fill="#181818" points="98,249,102,259,106,249,102,253" style="stroke:#181818;stroke-width:1.0;"/><line style="stroke:#181818;stroke-width:1.0;" x1="102" x2="102" y1="139" y2="159"/><polygon fill="#181818" points="98,149,102,159,106,149,102,153" style="stroke:#181818;stroke-width:1.0;"/><line style="stroke:#181818;stroke-width:1.0;" x1="271" x2="271" y1="139" y2="207"/><polygon fill="#181818" points="267,197,271,207,275,197,271,201" style="stroke:#181818;stroke-width:1.0;"/><line style="stroke:#181818;stroke-width:1.0;" x1="102" x2="102" y1="283" y2="303"/><polygon fill="#181818" points="98,293,102,303,106,293,102,297" style="stroke:#181818;stroke-width:1.0;"/><line style="stroke:#181818;stroke-width:1.0;" x1="271" x2="271" y1="239" y2="303"/><polygon fill="#181818" points="267,293,271,303,275,293,271,297" style="stroke:#181818;stroke-width:1.0;"/><line style="stroke:#181818;stroke-width:1.0;" x1="172" x2="172" y1="109" y2="133"/><polygon fill="#181818" points="168,123,172,133,176,123,172,127" style="stroke:#181818;stroke-width:1.0;"/><line style="stroke:#181818;stroke-width:1.0;" x1="221" x2="343" y1="97" y2="97"/><polygon fill="#181818" points="339,213,343,223,347,213,343,217" style="stroke:#181818;stroke-width:1.0;"/><line style="stroke:#181818;stroke-width:1.0;" x1="343" x2="343" y1="97" y2="341"/><line style="stroke:#181818;stroke-width:1.0;" x1="343" x2="184" y1="341" y2="341"/><polygon fill="#181818" points="194,337,184,341,194,345,190,341" style="stroke:#181818;stroke-width:1.0;"/><line style="stroke:#181818;stroke-width:1.0;" x1="172" x2="172" y1="309" y2="329"/><polygon fill="#181818" points="168,319,172,329,176,319,172,323" style="stroke:#181818;stroke-width:1.0;"/><line style="stroke:#181818;stroke-width:1.0;" x1="172" x2="172" y1="65" y2="85"/><polygon fill="#181818" points="168,75,172,85,176,75,172,79" style="stroke:#181818;stroke-width:1.0;"/><line style="stroke:#181818;stroke-width:1.0;" x1="172" x2="172" y1="353" y2="373"/><polygon fill="#181818" points="168,363,172,373,176,363,172,367" style="stroke:#181818;stroke-width:1.0;"/><!--MD5=[2562c2463cbd2e952e4251337c6cabdf]
@startuml

title auto-pr-review-summary

start

if (pull_request ?) then (yes)
  fork
    if (actor is dependabot?\n&& update-type = patch ?) then (yes)
      :review-dependabot;
    else (no)
    endif
  fork again
    :review-license;
  end fork
else (no)
endif

stop

@enduml

PlantUML version 1.2022.5(Sat Apr 30 19:55:52 JST 2022)
(GPL source distribution)
Java Runtime: OpenJDK Runtime Environment
JVM: OpenJDK 64-Bit Server VM
Default Encoding: UTF-8
Language: ja
Country: JP
--></g></svg>