<?xml version="1.0" encoding="UTF-8" standalone="no"?><svg xmlns="http://www.w3.org/2000/svg" xmlns:xlink="http://www.w3.org/1999/xlink" contentStyleType="text/css" height="437px" preserveAspectRatio="none" style="width:591px;height:437px;background:#FFFFFF;" version="1.1" viewBox="0 0 591 437" width="591px" zoomAndPan="magnify"><defs/><g><rect height="24" style="stroke:#00000000;stroke-width:1.0;fill:none;" width="135" x="226.5" y="15"/><text fill="#000000" font-family="sans-serif" font-size="14" font-weight="bold" lengthAdjust="spacing" textLength="125" x="231.5" y="32.3184">docker-ci-summary</text><ellipse cx="300" cy="55" fill="#222222" rx="10" ry="10" style="stroke:#222222;stroke-width:1.0;"/><polygon fill="#F1F1F1" points="32,85,138,85,150,97,138,109,32,109,20,97,32,85" style="stroke:#181818;stroke-width:0.5;"/><text fill="#000000" font-family="sans-serif" font-size="11" lengthAdjust="spacing" textLength="16" x="89" y="118.6787">yes</text><text fill="#000000" font-family="sans-serif" font-size="11" lengthAdjust="spacing" textLength="106" x="32" y="101.1787">workflow_dispatch ?</text><polygon fill="#F1F1F1" points="182,85,300,85,312,97,300,109,182,109,170,97,182,85" style="stroke:#181818;stroke-width:0.5;"/><text fill="#000000" font-family="sans-serif" font-size="11" lengthAdjust="spacing" textLength="16" x="245" y="118.6787">yes</text><text fill="#000000" font-family="sans-serif" font-size="11" lengthAdjust="spacing" textLength="118" x="182" y="101.1787">push to main branch ?</text><polygon fill="#F1F1F1" points="344,85,418,85,430,97,418,109,344,109,332,97,344,85" style="stroke:#181818;stroke-width:0.5;"/><text fill="#000000" font-family="sans-serif" font-size="11" lengthAdjust="spacing" textLength="16" x="385" y="118.6787">yes</text><text fill="#000000" font-family="sans-serif" font-size="11" lengthAdjust="spacing" textLength="74" x="344" y="101.1787">pull_request ?</text><polygon fill="#F1F1F1" points="462,85,518,85,530,97,518,109,462,109,450,97,462,85" style="stroke:#181818;stroke-width:0.5;"/><text fill="#000000" font-family="sans-serif" font-size="11" lengthAdjust="spacing" textLength="16" x="494" y="118.6787">yes</text><text fill="#000000" font-family="sans-serif" font-size="11" lengthAdjust="spacing" textLength="56" x="462" y="101.1787">schedule ?</text><text fill="#000000" font-family="sans-serif" font-size="11" lengthAdjust="spacing" textLength="14" x="530" y="95.6787">no</text><ellipse cx="565" cy="137.5" rx="11" ry="11" style="stroke:#222222;stroke-width:1.0;fill:none;"/><ellipse cx="565" cy="137.5" fill="#222222" rx="6" ry="6" style="stroke:#111111;stroke-width:1.0;"/><rect fill="#555555" height="6" rx="2.5" ry="2.5" style="stroke:#555555;stroke-width:1.0;" width="466" x="67" y="188.5"/><rect fill="#F1F1F1" height="32" rx="12.5" ry="12.5" style="stroke:#181818;stroke-width:0.5;" width="74" x="150" y="214.5"/><text fill="#000000" font-family="sans-serif" font-size="12" lengthAdjust="spacing" textLength="54" x="160" y="235.0586">dockerize</text><rect fill="#555555" height="6" rx="2.5" ry="2.5" style="stroke:#555555;stroke-width:1.0;" width="212" x="81" y="274"/><rect fill="#F1F1F1" height="32" rx="12.5" ry="12.5" style="stroke:#181818;stroke-width:0.5;" width="74" x="95" y="300"/><text fill="#000000" font-family="sans-serif" font-size="12" lengthAdjust="spacing" textLength="54" x="105" y="320.5586">scan-trivy</text><rect fill="#F1F1F1" height="32" rx="12.5" ry="12.5" style="stroke:#181818;stroke-width:0.5;" width="82" x="197" y="300"/><text fill="#000000" font-family="sans-serif" font-size="12" lengthAdjust="spacing" textLength="62" x="207" y="320.5586">scan-grype</text><rect fill="#555555" height="6" rx="2.5" ry="2.5" style="stroke:#555555;stroke-width:1.0;" width="212" x="81" y="352"/><rect fill="#F1F1F1" height="32" rx="12.5" ry="12.5" style="stroke:#181818;stroke-width:0.5;" width="78" x="321" y="266.5"/><text fill="#000000" font-family="sans-serif" font-size="12" lengthAdjust="spacing" textLength="58" x="331" y="287.0586">sast-grype</text><rect fill="#F1F1F1" height="32" rx="12.5" ry="12.5" style="stroke:#181818;stroke-width:0.5;" width="92" x="427" y="266.5"/><text fill="#000000" font-family="sans-serif" font-size="12" lengthAdjust="spacing" textLength="72" x="437" y="287.0586">sast-hadolint</text><rect fill="#555555" height="6" rx="2.5" ry="2.5" style="stroke:#555555;stroke-width:1.0;" width="466" x="67" y="378"/><ellipse cx="300" cy="415" rx="11" ry="11" style="stroke:#222222;stroke-width:1.0;fill:none;"/><ellipse cx="300" cy="415" fill="#222222" rx="6" ry="6" style="stroke:#111111;stroke-width:1.0;"/><line style="stroke:#181818;stroke-width:1.0;" x1="85" x2="85" y1="109" y2="168.5"/><polygon fill="#181818" points="81,158.5,85,168.5,89,158.5,85,162.5" style="stroke:#181818;stroke-width:1.0;"/><line style="stroke:#181818;stroke-width:1.0;" x1="241" x2="241" y1="109" y2="168.5"/><polygon fill="#181818" points="237,158.5,241,168.5,245,158.5,241,162.5" style="stroke:#181818;stroke-width:1.0;"/><line style="stroke:#181818;stroke-width:1.0;" x1="381" x2="381" y1="109" y2="168.5"/><polygon fill="#181818" points="377,158.5,381,168.5,385,158.5,381,162.5" style="stroke:#181818;stroke-width:1.0;"/><line style="stroke:#181818;stroke-width:1.0;" x1="490" x2="490" y1="109" y2="168.5"/><polygon fill="#181818" points="486,158.5,490,168.5,494,158.5,490,162.5" style="stroke:#181818;stroke-width:1.0;"/><line style="stroke:#181818;stroke-width:1.0;" x1="150" x2="170" y1="97" y2="97"/><polygon fill="#181818" points="160,93,170,97,160,101,164,97" style="stroke:#181818;stroke-width:1.0;"/><line style="stroke:#181818;stroke-width:1.0;" x1="312" x2="332" y1="97" y2="97"/><polygon fill="#181818" points="322,93,332,97,322,101,326,97" style="stroke:#181818;stroke-width:1.0;"/><line style="stroke:#181818;stroke-width:1.0;" x1="430" x2="450" y1="97" y2="97"/><polygon fill="#181818" points="440,93,450,97,440,101,444,97" style="stroke:#181818;stroke-width:1.0;"/><line style="stroke:#181818;stroke-width:1.0;" x1="300" x2="300" y1="65" y2="70"/><line style="stroke:#181818;stroke-width:1.0;" x1="300" x2="85" y1="70" y2="70"/><line style="stroke:#181818;stroke-width:1.0;" x1="85" x2="85" y1="70" y2="85"/><polygon fill="#181818" points="81,75,85,85,89,75,85,79" style="stroke:#181818;stroke-width:1.0;"/><line style="stroke:#181818;stroke-width:1.0;" x1="530" x2="565" y1="97" y2="97"/><line style="stroke:#181818;stroke-width:1.0;" x1="565" x2="565" y1="97" y2="126.5"/><polygon fill="#181818" points="561,116.5,565,126.5,569,116.5,565,120.5" style="stroke:#181818;stroke-width:1.0;"/><line style="stroke:#181818;stroke-width:1.0;" x1="85" x2="490" y1="168.5" y2="168.5"/><line style="stroke:#181818;stroke-width:1.0;" x1="132" x2="132" y1="280" y2="300"/><polygon fill="#181818" points="128,290,132,300,136,290,132,294" style="stroke:#181818;stroke-width:1.0;"/><line style="stroke:#181818;stroke-width:1.0;" x1="238" x2="238" y1="280" y2="300"/><polygon fill="#181818" points="234,290,238,300,242,290,238,294" style="stroke:#181818;stroke-width:1.0;"/><line style="stroke:#181818;stroke-width:1.0;" x1="132" x2="132" y1="332" y2="352"/><polygon fill="#181818" points="128,342,132,352,136,342,132,346" style="stroke:#181818;stroke-width:1.0;"/><line style="stroke:#181818;stroke-width:1.0;" x1="238" x2="238" y1="332" y2="352"/><polygon fill="#181818" points="234,342,238,352,242,342,238,346" style="stroke:#181818;stroke-width:1.0;"/><line style="stroke:#181818;stroke-width:1.0;" x1="187" x2="187" y1="246.5" y2="274"/><polygon fill="#181818" points="183,264,187,274,191,264,187,268" style="stroke:#181818;stroke-width:1.0;"/><line style="stroke:#181818;stroke-width:1.0;" x1="187" x2="187" y1="194.5" y2="214.5"/><polygon fill="#181818" points="183,204.5,187,214.5,191,204.5,187,208.5" style="stroke:#181818;stroke-width:1.0;"/><line style="stroke:#181818;stroke-width:1.0;" x1="360" x2="360" y1="194.5" y2="266.5"/><polygon fill="#181818" points="356,256.5,360,266.5,364,256.5,360,260.5" style="stroke:#181818;stroke-width:1.0;"/><line style="stroke:#181818;stroke-width:1.0;" x1="473" x2="473" y1="194.5" y2="266.5"/><polygon fill="#181818" points="469,256.5,473,266.5,477,256.5,473,260.5" style="stroke:#181818;stroke-width:1.0;"/><line style="stroke:#181818;stroke-width:1.0;" x1="187" x2="187" y1="358" y2="378"/><polygon fill="#181818" points="183,368,187,378,191,368,187,372" style="stroke:#181818;stroke-width:1.0;"/><line style="stroke:#181818;stroke-width:1.0;" x1="360" x2="360" y1="298.5" y2="378"/><polygon fill="#181818" points="356,368,360,378,364,368,360,372" style="stroke:#181818;stroke-width:1.0;"/><line style="stroke:#181818;stroke-width:1.0;" x1="473" x2="473" y1="298.5" y2="378"/><polygon fill="#181818" points="469,368,473,378,477,368,473,372" style="stroke:#181818;stroke-width:1.0;"/><line style="stroke:#181818;stroke-width:1.0;" x1="300" x2="300" y1="168.5" y2="188.5"/><polygon fill="#181818" points="296,178.5,300,188.5,304,178.5,300,182.5" style="stroke:#181818;stroke-width:1.0;"/><line style="stroke:#181818;stroke-width:1.0;" x1="300" x2="300" y1="384" y2="404"/><polygon fill="#181818" points="296,394,300,404,304,394,300,398" style="stroke:#181818;stroke-width:1.0;"/><!--MD5=[b07b274e8a84ebef173dc23938ad4081]
@startuml 

title docker-ci-summary

start 

if (workflow_dispatch ?) then (yes)
elseif (push to main branch ?) then (yes)
elseif (pull_request ?) then (yes)
elseif (schedule ?) then (yes)
else (no)
  stop
endif

fork
  :dockerize;
  fork
    :scan-trivy;
  fork again
    :scan-grype;
  end fork
fork again
  :sast-grype;
fork again
  :sast-hadolint;
end fork

stop

@enduml

PlantUML version 1.2022.5(Sat Apr 30 19:55:52 JST 2022)
(GPL source distribution)
Java Runtime: OpenJDK Runtime Environment
JVM: OpenJDK 64-Bit Server VM
Default Encoding: UTF-8
Language: ja
Country: JP
--></g></svg>