<?xml version="1.0" encoding="UTF-8" standalone="no"?><svg xmlns="http://www.w3.org/2000/svg" xmlns:xlink="http://www.w3.org/1999/xlink" contentStyleType="text/css" height="325px" preserveAspectRatio="none" style="width:591px;height:325px;background:#FFFFFF;" version="1.1" viewBox="0 0 591 325" width="591px" zoomAndPan="magnify"><defs/><g><rect height="24" style="stroke:#00000000;stroke-width:1.0;fill:none;" width="136" x="226" y="15"/><text fill="#000000" font-family="sans-serif" font-size="14" font-weight="bold" lengthAdjust="spacing" textLength="126" x="231" y="32.3184">python-ci-summary</text><ellipse cx="300" cy="55" fill="#222222" rx="10" ry="10" style="stroke:#222222;stroke-width:1.0;"/><polygon fill="#F1F1F1" points="32,85,138,85,150,97,138,109,32,109,20,97,32,85" style="stroke:#181818;stroke-width:0.5;"/><text fill="#000000" font-family="sans-serif" font-size="11" lengthAdjust="spacing" textLength="16" x="89" y="118.6787">yes</text><text fill="#000000" font-family="sans-serif" font-size="11" lengthAdjust="spacing" textLength="106" x="32" y="101.1787">workflow_dispatch ?</text><polygon fill="#F1F1F1" points="182,85,300,85,312,97,300,109,182,109,170,97,182,85" style="stroke:#181818;stroke-width:0.5;"/><text fill="#000000" font-family="sans-serif" font-size="11" lengthAdjust="spacing" textLength="16" x="245" y="118.6787">yes</text><text fill="#000000" font-family="sans-serif" font-size="11" lengthAdjust="spacing" textLength="118" x="182" y="101.1787">push to main branch ?</text><polygon fill="#F1F1F1" points="344,85,418,85,430,97,418,109,344,109,332,97,344,85" style="stroke:#181818;stroke-width:0.5;"/><text fill="#000000" font-family="sans-serif" font-size="11" lengthAdjust="spacing" textLength="16" x="385" y="118.6787">yes</text><text fill="#000000" font-family="sans-serif" font-size="11" lengthAdjust="spacing" textLength="74" x="344" y="101.1787">pull_request ?</text><polygon fill="#F1F1F1" points="462,85,518,85,530,97,518,109,462,109,450,97,462,85" style="stroke:#181818;stroke-width:0.5;"/><text fill="#000000" font-family="sans-serif" font-size="11" lengthAdjust="spacing" textLength="16" x="494" y="118.6787">yes</text><text fill="#000000" font-family="sans-serif" font-size="11" lengthAdjust="spacing" textLength="56" x="462" y="101.1787">schedule ?</text><text fill="#000000" font-family="sans-serif" font-size="11" lengthAdjust="spacing" textLength="14" x="530" y="95.6787">no</text><ellipse cx="565" cy="137.5" rx="11" ry="11" style="stroke:#222222;stroke-width:1.0;fill:none;"/><ellipse cx="565" cy="137.5" fill="#222222" rx="6" ry="6" style="stroke:#111111;stroke-width:1.0;"/><rect fill="#555555" height="6" rx="2.5" ry="2.5" style="stroke:#555555;stroke-width:1.0;" width="188" x="206" y="188.5"/><rect fill="#F1F1F1" height="32" rx="12.5" ry="12.5" style="stroke:#181818;stroke-width:0.5;" width="47" x="220" y="214.5"/><text fill="#000000" font-family="sans-serif" font-size="12" lengthAdjust="spacing" textLength="27" x="230" y="235.0586">build</text><rect fill="#F1F1F1" height="32" rx="12.5" ry="12.5" style="stroke:#181818;stroke-width:0.5;" width="85" x="295" y="214.5"/><text fill="#000000" font-family="sans-serif" font-size="12" lengthAdjust="spacing" textLength="65" x="305" y="235.0586">sast-codeql</text><rect fill="#555555" height="6" rx="2.5" ry="2.5" style="stroke:#555555;stroke-width:1.0;" width="188" x="206" y="266.5"/><ellipse cx="300" cy="303.5" rx="11" ry="11" style="stroke:#222222;stroke-width:1.0;fill:none;"/><ellipse cx="300" cy="303.5" fill="#222222" rx="6" ry="6" style="stroke:#111111;stroke-width:1.0;"/><line style="stroke:#181818;stroke-width:1.0;" x1="85" x2="85" y1="109" y2="168.5"/><polygon fill="#181818" points="81,158.5,85,168.5,89,158.5,85,162.5" style="stroke:#181818;stroke-width:1.0;"/><line style="stroke:#181818;stroke-width:1.0;" x1="241" x2="241" y1="109" y2="168.5"/><polygon fill="#181818" points="237,158.5,241,168.5,245,158.5,241,162.5" style="stroke:#181818;stroke-width:1.0;"/><line style="stroke:#181818;stroke-width:1.0;" x1="381" x2="381" y1="109" y2="168.5"/><polygon fill="#181818" points="377,158.5,381,168.5,385,158.5,381,162.5" style="stroke:#181818;stroke-width:1.0;"/><line style="stroke:#181818;stroke-width:1.0;" x1="490" x2="490" y1="109" y2="168.5"/><polygon fill="#181818" points="486,158.5,490,168.5,494,158.5,490,162.5" style="stroke:#181818;stroke-width:1.0;"/><line style="stroke:#181818;stroke-width:1.0;" x1="150" x2="170" y1="97" y2="97"/><polygon fill="#181818" points="160,93,170,97,160,101,164,97" style="stroke:#181818;stroke-width:1.0;"/><line style="stroke:#181818;stroke-width:1.0;" x1="312" x2="332" y1="97" y2="97"/><polygon fill="#181818" points="322,93,332,97,322,101,326,97" style="stroke:#181818;stroke-width:1.0;"/><line style="stroke:#181818;stroke-width:1.0;" x1="430" x2="450" y1="97" y2="97"/><polygon fill="#181818" points="440,93,450,97,440,101,444,97" style="stroke:#181818;stroke-width:1.0;"/><line style="stroke:#181818;stroke-width:1.0;" x1="300" x2="300" y1="65" y2="70"/><line style="stroke:#181818;stroke-width:1.0;" x1="300" x2="85" y1="70" y2="70"/><line style="stroke:#181818;stroke-width:1.0;" x1="85" x2="85" y1="70" y2="85"/><polygon fill="#181818" points="81,75,85,85,89,75,85,79" style="stroke:#181818;stroke-width:1.0;"/><line style="stroke:#181818;stroke-width:1.0;" x1="530" x2="565" y1="97" y2="97"/><line style="stroke:#181818;stroke-width:1.0;" x1="565" x2="565" y1="97" y2="126.5"/><polygon fill="#181818" points="561,116.5,565,126.5,569,116.5,565,120.5" style="stroke:#181818;stroke-width:1.0;"/><line style="stroke:#181818;stroke-width:1.0;" x1="85" x2="490" y1="168.5" y2="168.5"/><line style="stroke:#181818;stroke-width:1.0;" x1="243.5" x2="243.5" y1="194.5" y2="214.5"/><polygon fill="#181818" points="239.5,204.5,243.5,214.5,247.5,204.5,243.5,208.5" style="stroke:#181818;stroke-width:1.0;"/><line style="stroke:#181818;stroke-width:1.0;" x1="337.5" x2="337.5" y1="194.5" y2="214.5"/><polygon fill="#181818" points="333.5,204.5,337.5,214.5,341.5,204.5,337.5,208.5" style="stroke:#181818;stroke-width:1.0;"/><line style="stroke:#181818;stroke-width:1.0;" x1="243.5" x2="243.5" y1="246.5" y2="266.5"/><polygon fill="#181818" points="239.5,256.5,243.5,266.5,247.5,256.5,243.5,260.5" style="stroke:#181818;stroke-width:1.0;"/><line style="stroke:#181818;stroke-width:1.0;" x1="337.5" x2="337.5" y1="246.5" y2="266.5"/><polygon fill="#181818" points="333.5,256.5,337.5,266.5,341.5,256.5,337.5,260.5" style="stroke:#181818;stroke-width:1.0;"/><line style="stroke:#181818;stroke-width:1.0;" x1="300" x2="300" y1="168.5" y2="188.5"/><polygon fill="#181818" points="296,178.5,300,188.5,304,178.5,300,182.5" style="stroke:#181818;stroke-width:1.0;"/><line style="stroke:#181818;stroke-width:1.0;" x1="300" x2="300" y1="272.5" y2="292.5"/><polygon fill="#181818" points="296,282.5,300,292.5,304,282.5,300,286.5" style="stroke:#181818;stroke-width:1.0;"/><!--MD5=[ece571421747f0f4c468e288344b10dd]
@startuml

title python-ci-summary

start

if (workflow_dispatch ?) then (yes)
elseif (push to main branch ?) then (yes)
elseif (pull_request ?) then (yes)
elseif (schedule ?) then (yes)
else (no)
  stop
endif

fork
  :build;
fork again
  :sast-codeql;
end fork

stop

@enduml

PlantUML version 1.2022.5(Sat Apr 30 19:55:52 JST 2022)
(GPL source distribution)
Java Runtime: OpenJDK Runtime Environment
JVM: OpenJDK 64-Bit Server VM
Default Encoding: UTF-8
Language: ja
Country: JP
--></g></svg>