<?xml version="1.0" encoding="UTF-8" standalone="no"?><svg xmlns="http://www.w3.org/2000/svg" xmlns:xlink="http://www.w3.org/1999/xlink" contentStyleType="text/css" height="273px" preserveAspectRatio="none" style="width:650px;height:273px;background:#FFFFFF;" version="1.1" viewBox="0 0 650 273" width="650px" zoomAndPan="magnify"><defs/><g><rect height="24" style="stroke:#00000000;stroke-width:1.0;fill:none;" width="144" x="251.5" y="15"/><text fill="#000000" font-family="sans-serif" font-size="14" font-weight="bold" lengthAdjust="spacing" textLength="134" x="256.5" y="32.3184">scorecards-summary</text><ellipse cx="329.5" cy="55" fill="#222222" rx="10" ry="10" style="stroke:#222222;stroke-width:1.0;"/><polygon fill="#F1F1F1" points="32,85,138,85,150,97,138,109,32,109,20,97,32,85" style="stroke:#181818;stroke-width:0.5;"/><text fill="#000000" font-family="sans-serif" font-size="11" lengthAdjust="spacing" textLength="16" x="89" y="118.6787">yes</text><text fill="#000000" font-family="sans-serif" font-size="11" lengthAdjust="spacing" textLength="106" x="32" y="101.1787">workflow_dispatch ?</text><polygon fill="#F1F1F1" points="182,85,300,85,312,97,300,109,182,109,170,97,182,85" style="stroke:#181818;stroke-width:0.5;"/><text fill="#000000" font-family="sans-serif" font-size="11" lengthAdjust="spacing" textLength="16" x="245" y="118.6787">yes</text><text fill="#000000" font-family="sans-serif" font-size="11" lengthAdjust="spacing" textLength="118" x="182" y="101.1787">push to main branch ?</text><polygon fill="#F1F1F1" points="344,85,477,85,489,97,477,109,344,109,332,97,344,85" style="stroke:#181818;stroke-width:0.5;"/><text fill="#000000" font-family="sans-serif" font-size="11" lengthAdjust="spacing" textLength="16" x="414.5" y="118.6787">yes</text><text fill="#000000" font-family="sans-serif" font-size="11" lengthAdjust="spacing" textLength="133" x="344" y="101.1787">branch_protection_rule ?</text><polygon fill="#F1F1F1" points="521,85,577,85,589,97,577,109,521,109,509,97,521,85" style="stroke:#181818;stroke-width:0.5;"/><text fill="#000000" font-family="sans-serif" font-size="11" lengthAdjust="spacing" textLength="16" x="553" y="118.6787">yes</text><text fill="#000000" font-family="sans-serif" font-size="11" lengthAdjust="spacing" textLength="56" x="521" y="101.1787">schedule ?</text><text fill="#000000" font-family="sans-serif" font-size="11" lengthAdjust="spacing" textLength="14" x="589" y="95.6787">no</text><ellipse cx="624" cy="137.5" rx="11" ry="11" style="stroke:#222222;stroke-width:1.0;fill:none;"/><ellipse cx="624" cy="137.5" fill="#222222" rx="6" ry="6" style="stroke:#111111;stroke-width:1.0;"/><rect fill="#F1F1F1" height="32" rx="12.5" ry="12.5" style="stroke:#181818;stroke-width:0.5;" width="63" x="298" y="188.5"/><text fill="#000000" font-family="sans-serif" font-size="12" lengthAdjust="spacing" textLength="43" x="308" y="209.0586">analyze</text><ellipse cx="329.5" cy="251.5" rx="11" ry="11" style="stroke:#222222;stroke-width:1.0;fill:none;"/><ellipse cx="329.5" cy="251.5" fill="#222222" rx="6" ry="6" style="stroke:#111111;stroke-width:1.0;"/><line style="stroke:#181818;stroke-width:1.0;" x1="85" x2="85" y1="109" y2="168.5"/><polygon fill="#181818" points="81,158.5,85,168.5,89,158.5,85,162.5" style="stroke:#181818;stroke-width:1.0;"/><line style="stroke:#181818;stroke-width:1.0;" x1="241" x2="241" y1="109" y2="168.5"/><polygon fill="#181818" points="237,158.5,241,168.5,245,158.5,241,162.5" style="stroke:#181818;stroke-width:1.0;"/><line style="stroke:#181818;stroke-width:1.0;" x1="410.5" x2="410.5" y1="109" y2="168.5"/><polygon fill="#181818" points="406.5,158.5,410.5,168.5,414.5,158.5,410.5,162.5" style="stroke:#181818;stroke-width:1.0;"/><line style="stroke:#181818;stroke-width:1.0;" x1="549" x2="549" y1="109" y2="168.5"/><polygon fill="#181818" points="545,158.5,549,168.5,553,158.5,549,162.5" style="stroke:#181818;stroke-width:1.0;"/><line style="stroke:#181818;stroke-width:1.0;" x1="150" x2="170" y1="97" y2="97"/><polygon fill="#181818" points="160,93,170,97,160,101,164,97" style="stroke:#181818;stroke-width:1.0;"/><line style="stroke:#181818;stroke-width:1.0;" x1="312" x2="332" y1="97" y2="97"/><polygon fill="#181818" points="322,93,332,97,322,101,326,97" style="stroke:#181818;stroke-width:1.0;"/><line style="stroke:#181818;stroke-width:1.0;" x1="489" x2="509" y1="97" y2="97"/><polygon fill="#181818" points="499,93,509,97,499,101,503,97" style="stroke:#181818;stroke-width:1.0;"/><line style="stroke:#181818;stroke-width:1.0;" x1="329.5" x2="329.5" y1="65" y2="70"/><line style="stroke:#181818;stroke-width:1.0;" x1="329.5" x2="85" y1="70" y2="70"/><line style="stroke:#181818;stroke-width:1.0;" x1="85" x2="85" y1="70" y2="85"/><polygon fill="#181818" points="81,75,85,85,89,75,85,79" style="stroke:#181818;stroke-width:1.0;"/><line style="stroke:#181818;stroke-width:1.0;" x1="589" x2="624" y1="97" y2="97"/><line style="stroke:#181818;stroke-width:1.0;" x1="624" x2="624" y1="97" y2="126.5"/><polygon fill="#181818" points="620,116.5,624,126.5,628,116.5,624,120.5" style="stroke:#181818;stroke-width:1.0;"/><line style="stroke:#181818;stroke-width:1.0;" x1="85" x2="549" y1="168.5" y2="168.5"/><line style="stroke:#181818;stroke-width:1.0;" x1="329.5" x2="329.5" y1="168.5" y2="188.5"/><polygon fill="#181818" points="325.5,178.5,329.5,188.5,333.5,178.5,329.5,182.5" style="stroke:#181818;stroke-width:1.0;"/><line style="stroke:#181818;stroke-width:1.0;" x1="329.5" x2="329.5" y1="220.5" y2="240.5"/><polygon fill="#181818" points="325.5,230.5,329.5,240.5,333.5,230.5,329.5,234.5" style="stroke:#181818;stroke-width:1.0;"/><!--MD5=[7a43d6f4aabf284a7dda685f3b8a7e85]
@startuml

title scorecards-summary

start

if (workflow_dispatch ?) then (yes)
elseif (push to main branch ?) then (yes)
elseif (branch_protection_rule ?) then (yes)
elseif (schedule ?) then (yes)
else (no)
  stop
endif

:analyze;

stop

@enduml

PlantUML version 1.2022.5(Sat Apr 30 19:55:52 JST 2022)
(GPL source distribution)
Java Runtime: OpenJDK Runtime Environment
JVM: OpenJDK 64-Bit Server VM
Default Encoding: UTF-8
Language: ja
Country: JP
--></g></svg>